<?xml version="1.0" encoding="UTF-8"?>
<svg width="161px" height="33px" viewBox="0 0 161 33" version="1.1" xmlns="http://www.w3.org/2000/svg" xmlns:xlink="http://www.w3.org/1999/xlink">
    <!-- Generator: Sketch 51.2 (57519) - http://www.bohemiancoding.com/sketch -->
    <title>Logo / Dropbox / 40</title>
    <desc>Created with Sketch.</desc>
    <defs></defs>
    <g id="Symbols" stroke="none" stroke-width="1" fill="none" fill-rule="evenodd">
        <g id="nav/header" transform="translate(-26.000000, -4.000000)">
            <g id="Top-Nav-Dropbox---Prescroll-1---Dropdown---Desktop-1440">
                <g id="Logo-/-Dropbox-/-40" transform="translate(24.000000, 0.000000)">
                    <g id="Group-2">
                        <g id="Group" fill="#0061FF">
                            <g id="Glyph/Dropbox">
                                <g id="Group" transform="translate(1.948052, 4.675325)">
                                    <path d="M27.1480648,11.4687903 L36.1177922,17.1832468 L27.0849351,22.9379221 L18.0588312,17.1876318 L9.03285714,22.9379221 L0,17.1832468 L8.96959803,11.4688727 L0,5.75454545 L9.03298701,0 L18.0587664,5.75020181 L27.0850649,0 L36.1176623,5.75454545 L27.1480648,11.4687903 Z M27.021675,11.4688727 L18.0587662,5.7588891 L9.09598684,11.4687903 L18.0588312,17.1788617 L27.021675,11.4688727 Z M9.09090909,24.8449351 L18.1237662,19.0909091 L27.1567532,24.8449351 L18.1237662,30.5996104 L9.09090909,24.8449351 Z" id="Combined-Shape"></path>
                                </g>
                            </g>
                        </g>
                        <polygon id="Path" fill="#000000" points="145.466146 29.9686279 151.159472 21.7930532 145.727313 14 150.981994 14 153.823848 18.8133958 156.867805 14 162.005923 14 156.496506 21.6028306 162.159424 29.9686279 157.18521 29.9686279 153.850646 24.6794103 150.813843 29.9686279"></polygon>
                        <path d="M137.521302,30.5007324 C132.531144,30.5007324 129.637451,27.6193606 129.637451,22.2805176 L129.637451,21.8309308 C129.637451,16.3796911 133.014062,13.5007324 137.521302,13.5007324 C142.135857,13.5007324 145.337646,16.492286 145.337646,21.8873273 L145.337646,22.3369141 C145.337646,27.675757 142.189515,30.5007324 137.521302,30.5007324 Z M137.468915,26.5619507 C139.760315,26.5619507 141.080865,24.8847379 141.080865,22.2120692 L141.080865,21.8557134 C141.080865,19.1066828 139.760315,17.4673462 137.49556,17.4673462 C135.257448,17.4673462 133.894834,19.0104518 133.894834,21.8612983 L133.894834,22.2176542 C133.894834,24.8648688 135.177516,26.5619507 137.468915,26.5619507 Z" id="Path" fill="#000000"></path>
                        <path d="M121.439113,30.42 C118.779113,30.42 117.269855,29.4025664 116.401855,27.3305664 L115.517822,30 L112.039551,30 L112.039551,8.99267578 L116.002197,8.99267578 L116.002197,17.0389404 C117.193115,14.4204102 119.003113,13.48 121.551113,13.48 C124.323426,13.5002359 127.243652,16.5195312 127.243652,21.7269287 L127.249512,22.0799561 C127.249512,27.4559561 125.081787,30.42 121.439113,30.42 Z M119.360229,26.5848389 C121.779053,26.5848389 122.997627,25.184082 122.997627,22.1259795 L122.997627,21.7897726 C122.997627,18.8156347 121.636011,17.5898438 119.52063,17.5898438 C117.271364,17.5898438 116.195068,19.1351724 116.195068,21.9024138 L116.195068,22.1868966 C116.195068,24.8248276 117.137742,26.5848389 119.360229,26.5848389 Z" id="Path" fill="#000000"></path>
                        <path d="M94.0336914,36.0086642 L94.0336914,14.0305176 L97.5478516,14.0717773 L98.5056914,16.8225568 C99.324707,14.3969727 100.407627,13.507998 103.067627,13.507998 C106.542236,13.507998 109.216309,16.3015137 109.216309,21.4094238 L109.163574,22.40625 C109.163574,27.72625 106.503418,30.447998 103.067627,30.447998 C100.491627,30.447998 98.868,29.2806642 98,27.4046642 L98,36.0086642 L94.0336914,36.0086642 Z M101.448882,26.6100903 C103.947095,26.6100903 105.02832,24.8704225 105.02832,22.1977539 L105.02832,21.8413981 C105.02832,19.0923675 103.947095,17.5154858 101.477931,17.5154858 C99.0378159,17.5154858 98.0195312,18.9090086 98.0195312,21.7598551 L98.0195312,22.1162109 C98.0195312,24.7634256 98.9506689,26.6100903 101.448882,26.6100903 Z" id="Path" fill="#000000"></path>
                        <path d="M83.5371712,30.5007324 C78.5470129,30.5007324 75.6533203,27.6193606 75.6533203,22.2805176 L75.6533203,21.8309308 C75.6533203,16.3796911 79.0299315,13.5007324 83.5371712,13.5007324 C88.1517262,13.5007324 91.3535156,16.492286 91.3535156,21.8873273 L91.3535156,22.3369141 C91.3535156,27.675757 88.2053838,30.5007324 83.5371712,30.5007324 Z M83.4847845,26.5619507 C85.776184,26.5619507 87.0967344,24.8847379 87.0967344,22.2120692 L87.0967344,21.8557134 C87.0967344,19.1066828 85.776184,17.4673462 83.5114287,17.4673462 C81.2733175,17.4673462 79.910703,19.0104518 79.910703,21.8612983 L79.910703,22.2176542 C79.910703,24.8648688 81.193385,26.5619507 83.4847845,26.5619507 Z" id="Path" fill="#000000"></path>
                        <path d="M64.0603027,30 L68.3596191,30 L68.2680664,24.4155273 C68.2680664,19.9902344 69.6940156,18.4541016 73.1660156,18.4541016 L74.4926758,18.4541016 L74.450916,13.7588418 L73.8242559,13.7588418 C70.8282559,13.7588418 69.0036191,15.090748 68.3596191,17.666748 L67.5737305,13.9921875 L64.0603027,14.0109863 L64.0603027,30 Z" id="Path" fill="#000000"></path>
                        <path d="M45,30 L45,10.036 L52.8176875,10.036 C57.244873,10.036 61.4415664,12.864 61.4415664,19.276 L61.4415664,20.648 C61.4415664,27.088 56.9594727,30.0004883 52.9296875,30 L45,30 Z M53.0455096,14.0873812 C51.4977588,14.1242632 50.4756392,14.1427042 49.979151,14.1427042 C49.8664897,14.1427042 49.5334125,14.048373 48.9799194,13.8597107 L49.4721753,14.7603693 L49.4721753,25.1504215 L49.077929,26.0212708 C49.599829,25.8287033 49.9255462,25.7324195 50.0550808,25.7324195 C50.5659585,25.7324195 51.6096623,25.7139785 53.186192,25.6770965 C55.234255,25.6770965 56.7988281,23.9299911 56.7988281,20.5056316 L56.7988281,19.400875 C56.7988281,16.163161 55.2443136,14.0873812 53.0455096,14.0873812 Z" id="Path" fill="#000000"></path>
                    </g>
                </g>
            </g>
        </g>
    </g>
</svg>