<svg enable-background="new 0 0 100 100" height="100" viewBox="0 0 100 100" width="100" xmlns="http://www.w3.org/2000/svg"><g fill="#007ee5"><path d="m31.5 43.1 18.5 11.4 18.5-11.4-18.5-11.4z"/><path d="m89.2 0h-78.4c-6 0-10.8 4.8-10.8 10.8v78.4c0 6 4.8 10.8 10.8 10.8h78.4c6 0 10.8-4.8 10.8-10.8v-78.4c0-6-4.8-10.8-10.8-10.8zm-20.7 68-18.4 11-18.4-11v-4.1l5.5 3.6 12.8-10.6v-.1.1l12.9 10.7 5.5-3.6v4zm12.7-14.7-18.3 12-12.9-10.8-12.8 10.7-18.4-12 12.7-10.2-12.7-10 18.4-12 12.8 10.7 12.9-10.7 18.3 12-12.7 10.1z"/></g></svg>